<?xml version="1.0" encoding="utf-8"?>
<!-- Generator: Adobe Illustrator 25.4.1, SVG Export Plug-In . SVG Version: 6.00 Build 0)  -->
<svg version="1.1" id="Ebene_1" xmlns="http://www.w3.org/2000/svg" xmlns:xlink="http://www.w3.org/1999/xlink" x="0px" y="0px"
	 viewBox="0 0 700 700" style="enable-background:new 0 0 700 700;" xml:space="preserve">
<style type="text/css">
	.st0{fill:#FFFFFF;}
</style>
<g>
	<path class="st0" d="M533.73,202.51c3.68-0.45,5.95-0.8,8.22-0.98c30.66-2.47,60,2.66,88.2,14.91
		c16.16,7.01,31.09,16.09,44.39,27.45c4.61,3.94,8.39,10.38,9.76,16.31c4.16,18.05-1.32,34.15-14.3,47.03
		c-5.92,5.88-14.44,7.23-22.88,6.8c-1.56-0.08-3.13-0.16-5.17-0.27c4.62,4.93,9.19,9.02,12.8,13.83c6.64,8.85,6.49,18.83,0.34,27.93
		c-12.62,18.68-32.15,26.55-54.68,22.35c-16.57-3.08-31.53-10.33-46.7-17.16c-13.78-6.21-27.6-12.34-41.59-18.03
		c-9.17-3.73-18.64-3.76-26.88-0.57c4.54,3.56,8.27,6.89,12.39,9.64c12.86,8.57,26.37,16.24,38.64,25.57
		c9.43,7.17,18.37,15.51,25.73,24.76c10.22,12.85,11.04,27.34,2.38,41.94c-6.23,10.5-14.49,18.78-26.02,22.89
		c-14.7,5.24-27.45-0.24-39.19-8.85c-15.86-11.64-27.95-26.93-40.25-42c-4.09-5.02-8.33-9.92-12.34-15
		c-6.54-8.28-15.54-11.48-25.52-13.09c-12.31-1.99-24.72-3.69-36.82-6.61c-19.01-4.59-32.95-16.6-43.89-32.44
		c-1.1-1.59-2.45-3.22-4.06-4.23c-21.88-13.74-32-36.25-27.15-61.6c4.35-22.73,13.46-43.13,30.75-59.15
		c9.52-8.82,20.74-14.17,33.62-16.25c4.66-0.75,9.16-2.47,13.74-3.7c13.63-3.66,27.27-7.31,40.91-10.95
		c8.99-2.4,18.08-4.46,26.95-7.23c10.13-3.17,11.22-13.08,14.86-21.12c4.38-9.67,8.39-19.64,14-28.58
		c10.6-16.91,28.69-22.83,47.88-17.12c8.6,2.56,16.91,5.61,21.74,13.8c6.39,10.83,4.52,22.21,1.13,33.38
		c-3.72,12.25-10.18,23.07-18.53,32.76C535.58,199.62,535.13,200.46,533.73,202.51z M371.9,263.74c-2.11,1.65-4.39,3.23-6.43,5.06
		c-12.14,10.91-21.74,23.4-24.37,40.1c-3.56,22.53,14.73,47.61,32.39,57.83c11.77,6.81,25.08,8.39,38.29,10.37
		c8.84,1.32,17.76,2.97,26.24,5.72c12.87,4.17,20.22,15.18,28.28,25.12c12.34,15.22,24.28,30.87,40.01,42.89
		c9.34,7.14,19.48,12.02,31.37,5.91c7.34-3.77,12.15-10.12,16.31-17.06c5.97-9.94,5.85-19.84,0.17-29.8
		c-6.09-10.67-15.08-18.63-24.93-25.49c-12.67-8.82-25.89-16.85-38.69-25.5c-4.78-3.23-9.59-6.74-13.4-11.01
		c-5.13-5.75-3.37-11.58,3.63-14.82c9.28-4.3,19.05-4.17,28.33-1.09c12.59,4.17,24.94,9.18,37.09,14.52
		c17.78,7.83,34.9,17.17,54.06,21.65c17.62,4.12,33.53-1.11,42.92-14.7c6.81-9.85,6.06-17.76-2.46-26.21
		c-8.31-8.23-18.44-13.64-29.03-18.12c-32.41-13.72-66.24-22-101.17-25.98c-1.91-0.22-4.96-1.98-5.12-3.3
		c-0.23-1.92,1.2-5.33,2.78-5.95c8.43-3.35,16.92-7.31,25.76-8.69c19.77-3.08,37.77,3.87,55.03,12.68
		c13.91,7.1,27.47,14.89,41.54,21.65c8.52,4.09,17.59,7.3,27.41,3.47c14.17-5.52,20.6-25.36,14.55-41.08
		c-4.57-11.86-14.43-19.02-24.71-25.21c-42.77-25.77-88.31-33.07-136.72-19.38c-3.38,0.96-6.1,0.07-6.65-3.08
		c-0.31-1.79,1.35-5.16,2.96-5.84c11.98-5.04,19.85-14.39,26.53-24.83c7.06-11.04,12.44-22.82,12.17-36.39
		c-0.12-6.16-2.17-11.5-7.37-15.11c-14.37-9.96-34.93-6.86-43.91,8.1c-7.13,11.87-11.67,25.27-17.84,37.75
		c-2.06,4.16-4.96,8.37-8.55,11.22c-7.68,6.09-17.08,8.72-26.55,10.9c-15.39,3.55-30.87,6.79-46.07,11.04
		c-14.77,4.13-22.96,16.18-22.75,31.42c0.23,16.74,9.23,29.04,23.88,33.7c14.74,4.69,29.56,4.06,44.49,1.75
		c3.62-0.56,7.18-1.48,10.81-1.89c0.99-0.11,2.12,1.02,3.18,1.59c-0.67,1.17-1.15,2.52-2.07,3.43c-0.62,0.62-1.83,0.73-2.81,0.91
		c-15.62,2.97-31.31,4.95-47.12,1.58c-5.23-1.11-10.33-2.83-15.57-4.29c-0.4,5.66,0.56,9.52,5.05,11.35
		c6.8,2.77,14.07,4.99,21.33,5.83c7.36,0.85,14.63-0.9,19.23-8.04c0.52-0.8,2.19-0.86,3.33-1.26c0.4,1.3,1.53,3.11,1.05,3.82
		c-1.71,2.54-3.59,5.33-6.1,6.92c-10.44,6.65-32.31,5.4-42.17-2.78c-3.19-2.64-6.17-6.97-6.82-10.93
		C381.37,276.2,377.77,269.89,371.9,263.74z M334.03,330.96c0.5-0.17,1-0.35,1.5-0.52c0-3.74-0.35-7.51,0.07-11.2
		c0.92-8.01,1.13-16.34,3.65-23.87c4.81-14.41,15.2-25.05,26.76-34.59c1.58-1.3,3.2-4.13,2.89-5.91
		c-1.97-11.23-2.3-22.13,3.29-32.57c0.51-0.96,0.36-2.65-0.17-3.62c-0.28-0.51-2.26-0.58-3.15-0.17c-5.98,2.79-12.41,5.02-17.7,8.83
		c-15.02,10.8-23.26,26.45-29.09,43.55c-3.98,11.68-5.74,23.64-2.95,35.83C321.36,316.46,326.21,324.72,334.03,330.96z
		 M591.73,290.37c-19.35-10.52-37.97-18.93-59.77-14.7C551.4,280.46,570.85,285.24,591.73,290.37z"/>
	<path class="st0" d="M300.7,431.18c6.93,7.32,13.54,13.85,19.64,20.82c17.93,20.54,25.8,44.01,19.49,71.17
		c-4.91,21.13-17.89,36.87-43.2,37.73c-1.33,0.05-3.43,1.02-3.8,2.05c-9.01,24.88-44.93,27.03-61.34,3.93
		c-9.14-12.86-18.29-25.73-27.25-38.71c-13.99-20.26-31.1-37.61-49.76-53.49c-8.22-6.99-16.91-13.43-25.43-20.07
		c-1.27-0.99-2.75-1.71-4.47-2.77c-3.8,5.27-7.27,10.32-10.98,15.19C104.96,478.4,93.62,485,79.2,485.49
		c-16.57,0.57-32.71-1.55-47.06-10.56c-13.7-8.6-20.04-21.57-19.26-37.57c0.52-10.64,12.5-21.52,24.63-24.44
		c12.91-3.11,25.78-6.52,38.44-10.51c7.25-2.29,7.23-3.59,5.56-10.9c-4.06-17.84-4.84-35.55,1.82-53.1
		c6.33-16.69,17.84-28.75,33.21-37.07c27.87-15.07,57.12-17.13,86.91-6.79c7.67,2.66,14.36,8.1,21.59,12.11
		c1.56,0.86,3.76,1.86,5.22,1.4c24.45-7.75,44.31,1.42,62.54,16.69c11.97,10.02,21.08,22.35,29.59,35.36
		c2.82,4.31,8.46,7.18,13.34,9.67c14.94,7.62,30.6,13.92,45.1,22.26c15.16,8.72,28.67,19.74,37.03,35.94
		c9.22,17.87,6.14,40.31-8.23,51.53c-11.27,8.81-24.12,8.52-37.01,4.05c-11.85-4.12-20.37-12.87-28.77-21.69
		c-11.03-11.59-22.27-22.92-37.74-28.68C304.46,432.56,302.8,431.95,300.7,431.18z M293.34,550.33
		c10.12,2.44,22.32-2.16,28.97-11.46c7.88-11.02,10.68-23.68,9.94-36.89c-0.95-16.92-8.53-31.27-19.3-44.03
		c-15.21-18.02-34.47-30.53-55.44-40.74c-1.43-0.7-2.25-2.66-3.36-4.03c1.73-0.41,3.58-1.44,5.15-1.12
		c7.82,1.58,15.61,3.37,23.34,5.36c10.44,2.69,21.18,4.71,31.12,8.69c14.89,5.96,26.14,17.28,37.41,28.42
		c6.56,6.49,13.1,13.62,21.01,17.98c18.13,9.99,32.96,3.14,37.54-15.9c3.85-16.02-2.62-29.07-13.34-40.29
		c-14.57-15.24-33.22-24.05-52.23-32.21c-6.26-2.69-12.35-5.77-18.64-8.37c-10.69-4.42-15.1-14.4-21.18-23.03
		c-11.08-15.73-24.29-29.12-43.09-35.47c-14.8-5-28.04-1.45-40.41,8.06c4.68,6.06,7.72,12.68,17.17,13.13
		c8.27,0.39,14.37,7.72,15.31,14.91c0.7,5.42-2.69,10.11-8.03,10.65c-1.21,0.12-2.53-0.97-3.8-1.5c0.77-1.21,1.31-3.18,2.35-3.5
		c4.31-1.33,4.3-4.12,3.07-7.47c-1.98-5.38-7.96-8.56-13.95-7.48c1.08,3.98,2.4,7.91,3.1,11.95c0.22,1.28-1.22,2.86-1.89,4.3
		c-1.07-1.04-2.55-1.89-3.13-3.15c-0.96-2.09-1.27-4.47-2-6.68c-5.53-16.72-16.14-28.72-33.29-33.65
		c-12.35-3.55-25.17-3.07-37.67-0.59c-18.69,3.71-34.59,12.36-45.93,28.28c-6.73,9.44-8.78,20.29-10.25,31.42
		c-1.64,12.43-2.75,25.45-15.78,32.01c-7.36,3.71-15.22,6.6-23.11,9.03c-8.72,2.69-17.82,4.16-26.61,6.67
		c-9.56,2.73-15.42,13.98-13.05,23.68c2.22,9.1,7.42,15.76,15.52,20.35c12.8,7.26,26.76,8.72,41.05,8.08
		c9.41-0.42,17.43-4.36,23.45-11.65c4.43-5.36,8.25-11.21,12.53-16.7c5.12-6.55,9.75-7.56,16.12-2.36
		c16.97,13.83,34.02,27.61,50.22,42.3c18.73,16.99,32.28,38.26,46.19,59.16c5.87,8.82,11.59,17.92,21.08,23.61
		c12.04,7.22,29,2.12,33.56-10.94c2.59-7.41,4.47-15.49,4.55-23.28c0.32-29.97-13.84-53.07-36.3-71.65
		c-12-9.93-25.55-17.28-40.11-22.86c-1.66-0.63-2.61-3.1-3.89-4.72c1.9-0.23,4.09-1.18,5.66-0.57
		c16.99,6.65,32.88,15.26,46.44,27.64c20.49,18.71,33.2,41.31,33.94,69.67C293.46,539.01,293.34,544.62,293.34,550.33z
		 M91.69,391.23c0.63,0.07,1.27,0.15,1.9,0.22c0.87-5.48,1.73-10.96,2.63-16.44c1.96-12,3.9-24,11.37-34.19
		c12.72-17.34,30.34-26.47,51.02-30.18c19.32-3.47,38.13-2.97,55.17,8.7c0.94,0.64,2.75,0,4.16-0.04c-0.29-2.23,0.23-5.54-1.02-6.49
		c-4.06-3.07-8.57-5.77-13.28-7.71c-20.08-8.28-40.84-9.41-61.68-3.69c-21.28,5.84-39.18,16.71-48.56,37.88
		C85.86,356.32,86.65,373.77,91.69,391.23z"/>
</g>
</svg>
