<?xml version="1.0" encoding="utf-8"?>
<!-- Generator: Adobe Illustrator 25.4.1, SVG Export Plug-In . SVG Version: 6.00 Build 0)  -->
<svg version="1.1" id="Ebene_1" xmlns="http://www.w3.org/2000/svg" xmlns:xlink="http://www.w3.org/1999/xlink" x="0px" y="0px"
	 viewBox="0 0 700 700" style="enable-background:new 0 0 700 700;" xml:space="preserve">
<style type="text/css">
	.st0{fill:#FFFFFF;}
</style>
<g>
	<path class="st0" d="M480.31,485.06c0,4.96,0.03,10.05-0.01,15.14c-0.04,5.79-1.6,7.36-7.3,7.37c-10.6,0.01-21.21,0.02-31.81,0
		c-5.25-0.01-6.94-1.69-6.96-6.91c-0.03-5.2-0.01-10.4-0.01-15.82c-55.99,0-111.57,0-167.6,0c0,5.51,0.03,10.83-0.01,16.16
		c-0.04,4.76-1.81,6.55-6.55,6.57c-10.98,0.04-21.96,0.03-32.94,0c-4.73-0.01-6.5-1.77-6.57-6.57c-0.07-5.34-0.02-10.68-0.02-15.31
		c-3.84-1.77-7.37-2.81-10.22-4.82c-4.96-3.5-6.51-8.84-6.51-14.78c0.04-29.81,0.02-59.63,0.02-89.44
		c0-55.39-0.01-110.77,0.01-166.16c0-9.92,4.91-16.64,13.54-18.47c1.57-0.33,3.22-0.36,4.83-0.36
		c85.46-0.02,170.93-0.02,256.39-0.01c11.47,0,18.41,6.89,18.41,18.42c0.02,85.32,0.02,170.65,0,255.97
		C497.01,476.68,492.51,481.84,480.31,485.06z M350.38,474.12c42.17,0,84.34,0,126.51,0c7.98,0,9.64-1.67,9.64-9.66
		c0-84.2,0-168.41,0-252.61c0-8.03-1.69-9.75-9.56-9.75c-84.34,0-168.69,0-253.03,0c-7.95,0-9.63,1.69-9.63,9.67
		c0,84.2,0,168.41,0,252.61c0,8.15,1.61,9.73,9.93,9.73C266.29,474.12,308.33,474.12,350.38,474.12z M231.04,496.87
		c8.48,0,16.62,0,24.87,0c0-4.09,0-7.99,0-12.25c-7.78,0-15.34-0.05-22.89,0.09c-0.67,0.01-1.85,1.25-1.89,1.98
		C230.92,490,231.04,493.34,231.04,496.87z M444.84,496.78c8.53,0,16.65,0,24.75,0c0-4.12,0-7.93,0-11.91c-8.37,0-16.5,0-24.75,0
		C444.84,488.96,444.84,492.78,444.84,496.78z"/>
	<path class="st0" d="M466.48,313.3c1.47,0.08,2.56,0.14,3.65,0.2c3.27,0.17,5.24,1.96,5.26,5.15c0.11,12.97,0.09,25.94,0.02,38.92
		c-0.02,3.06-1.89,4.78-4.84,5.26c-1.22,0.2-2.47,0.18-4.09,0.28c0,1.41,0,2.75,0,4.1c0,23.33,0,46.65,0,69.98
		c0,5.95-1.56,7.5-7.52,7.5c-72.36,0-144.72,0-217.08,0c-5.97,0-7.51-1.55-7.52-7.5c-0.01-4.24-0.08-8.48,0.03-12.72
		c0.05-1.94-0.4-3.04-2.33-4.03c-5.83-3.01-8.64-8.14-8.76-14.62c-0.14-7.23-0.14-14.47,0-21.7c0.12-6.48,3.09-11.36,8.71-14.75
		c1.1-0.66,2.24-2.33,2.25-3.54c0.14-18.46,0.13-36.92,0.02-55.38c-0.01-1.15-0.93-2.82-1.91-3.37c-5.93-3.27-8.89-8.28-9.05-14.89
		c-0.17-7.23-0.14-14.47-0.01-21.7c0.12-6.64,3.19-11.59,9-14.95c1-0.58,1.91-2.18,1.96-3.35c0.22-4.73,0.05-9.48,0.1-14.22
		c0.05-4.48,1.86-6.26,6.39-6.45c0.75-0.03,1.5-0.01,2.25-0.01c71.61,0,143.22,0,214.83,0c0.5,0,1-0.01,1.5,0
		c5.44,0.09,7.14,1.78,7.14,7.22c0.01,23.45,0.01,46.9,0.01,70.35C466.48,310.4,466.48,311.74,466.48,313.3z M244.85,242.19
		c0,3.8-0.11,7.4,0.09,10.97c0.05,0.82,1.01,1.88,1.83,2.32c6.06,3.3,9.03,8.44,9.14,15.22c0.11,7.11,0.14,14.22-0.01,21.33
		c-0.14,6.6-3.04,11.65-8.94,14.97c-1,0.57-2.02,2.16-2.03,3.29c-0.12,18.59-0.12,37.17-0.01,55.76c0.01,1.05,0.91,2.55,1.83,3.06
		c6.32,3.51,9.17,8.9,9.19,15.97c0.01,5.74-0.18,11.48,0.05,17.21c0.35,8.82-2.48,15.68-10.91,19.25c0,4.25,0,8.31,0,12.36
		c70.39,0,140.56,0,210.65,0c0-23.78,0-47.28,0-71c-3.5,0-6.74,0.09-9.97-0.02c-4.07-0.14-6.08-2.03-6.11-5.99
		c-0.08-12.47-0.08-24.95,0-37.42c0.02-4.09,1.92-5.89,6-5.99c3.33-0.08,6.67-0.02,10.05-0.02c0-24.05,0-47.65,0-71.28
		C385.34,242.19,315.27,242.19,244.85,242.19z M464.73,352.31c0-9.61,0-18.87,0-28.11c-4.94,0-9.61,0-14.34,0
		c0,9.49,0,18.74,0,28.11C455.25,352.31,459.82,352.31,464.73,352.31z M245.45,394.96c0-3.49,0.09-6.99-0.02-10.48
		c-0.13-3.99-2.43-6.43-5.82-6.43c-3.39,0-5.75,2.44-5.81,6.43c-0.11,6.98-0.11,13.97,0,20.95c0.06,4.04,2.35,6.39,5.81,6.39
		c3.47,0,5.69-2.34,5.82-6.39C245.54,401.95,245.45,398.46,245.45,394.96z M245.45,281.23c0-3.49,0.09-6.99-0.02-10.47
		c-0.13-3.9-2.55-6.45-5.86-6.43c-3.3,0.03-5.71,2.58-5.77,6.52c-0.1,6.98-0.11,13.97,0,20.95c0.06,4.01,2.4,6.37,5.86,6.34
		c3.45-0.03,5.66-2.38,5.78-6.43C245.54,288.22,245.46,284.72,245.45,281.23z"/>
	<path class="st0" d="M414.22,338.35c-0.11,35.39-28.81,63.8-64.32,63.65c-34.92-0.15-63.35-28.84-63.31-63.9
		c0.04-35.33,28.98-64.16,64.13-63.9C385.97,274.46,414.33,303.12,414.22,338.35z M379.73,338.19
		c0.08-16.16-12.83-29.23-29.06-29.45c-16.06-0.21-29.41,12.85-29.57,28.94c-0.16,16.44,12.81,29.76,29.04,29.85
		C366.46,367.61,379.65,354.53,379.73,338.19z M297.3,332.93c4.13,0,7.85,0.1,11.55-0.08c0.82-0.04,2.02-0.91,2.32-1.69
		c2.27-5.82,4.37-11.71,6.46-17.41c-2.58-2.66-5.58-5.74-8.77-9.03C302.35,312.73,298.57,321.94,297.3,332.93z M383.09,313.41
		c2.28,6.18,4.31,11.85,6.49,17.47c0.32,0.83,1.35,1.91,2.11,1.95c3.82,0.2,7.66,0.09,11.8,0.09c-1.14-10.87-4.97-20.14-11.71-28.43
		C388.53,307.83,385.53,310.92,383.09,313.41z M355.82,378.58c0,3.67,0,7.99,0,12.58c10.73-1.09,20.05-4.93,28.29-11.74
		c-3.27-3.28-6.33-6.35-8.93-8.95C368.76,373.15,362.61,375.73,355.82,378.58z M316.73,379.52c8.36,6.58,17.55,10.66,28.15,11.59
		c0-4.71,0-9.12,0-12.58c-6.72-2.83-12.85-5.41-18.83-7.92C323.23,373.31,320.1,376.29,316.73,379.52z M325.71,305.75
		c6.55-2.73,12.79-5.32,19.28-8.02c0-3.72,0-8.04,0-12.64c-10.73,1.12-19.99,5-27.96,11.5C320.2,299.92,323.18,303.07,325.71,305.75
		z M355.78,297.7c6.69,2.78,12.84,5.34,18.87,7.85c2.79-2.76,5.93-5.86,9.16-9.06c-8.12-6.37-17.29-10.46-28.03-11.33
		C355.78,289.84,355.78,294.05,355.78,297.7z M317.73,362.8c-2.26-6.09-4.28-11.65-6.42-17.15c-0.34-0.86-1.25-2.08-1.96-2.11
		c-3.94-0.2-7.89-0.1-12.04-0.1c1.25,10.83,4.99,20.05,11.72,28.29C312.28,368.4,315.27,365.32,317.73,362.8z M403.53,343.43
		c-4.2,0-8.04-0.06-11.86,0.06c-0.67,0.02-1.68,0.67-1.91,1.26c-2.28,5.96-4.43,11.97-6.44,17.46c2.73,2.85,5.7,5.95,8.81,9.18
		C398.47,363.46,402.26,354.33,403.53,343.43z"/>
	<path class="st0" d="M350.51,325.58c6.94,0.01,12.63,5.74,12.56,12.63c-0.08,6.93-5.79,12.55-12.73,12.51
		c-6.91-0.04-12.61-5.79-12.56-12.67C337.83,331.11,343.5,325.57,350.51,325.58z M350.42,340.98c0.97-1.38,1.92-2.16,1.95-2.98
		c0.03-0.6-1.25-1.85-1.75-1.76c-0.84,0.15-2.01,1.06-2.15,1.81C348.35,338.72,349.44,339.61,350.42,340.98z"/>
</g>
</svg>
